<mxfile host="app.diagrams.net" agent="Mozilla/5.0 (X11; Linux x86_64) AppleWebKit/537.36 (KHTML, like Gecko) Chrome/137.0.0.0 Safari/537.36" version="26.1.2">
  <diagram name="Page-1" id="ECLgTJ-8rcmHHhjnBu2W">
    <mxGraphModel dx="2284" dy="748" grid="1" gridSize="10" guides="1" tooltips="1" connect="1" arrows="1" fold="1" page="1" pageScale="1" pageWidth="850" pageHeight="1100" math="0" shadow="0">
      <root>
        <mxCell id="0" />
        <mxCell id="1" parent="0" />
        <mxCell id="Mr_6VUo17zFoHYfl5iYp-2" value="" style="ellipse;shape=cloud;whiteSpace=wrap;html=1;" vertex="1" parent="1">
          <mxGeometry x="-230" y="50" width="1060" height="690" as="geometry" />
        </mxCell>
        <mxCell id="Mr_6VUo17zFoHYfl5iYp-3" value="&lt;font style=&quot;font-size: 20px;&quot;&gt;&lt;b&gt;VPN&lt;br&gt;10.10.10.0/24&lt;/b&gt;&lt;/font&gt;" style="text;html=1;align=center;verticalAlign=middle;resizable=0;points=[];autosize=1;strokeColor=none;fillColor=none;" vertex="1" parent="1">
          <mxGeometry x="270" y="610" width="150" height="60" as="geometry" />
        </mxCell>
        <mxCell id="Mr_6VUo17zFoHYfl5iYp-4" value="" style="shape=mxgraph.cisco.routers.router;html=1;pointerEvents=1;dashed=0;fillColor=#036897;strokeColor=#ffffff;strokeWidth=2;verticalLabelPosition=bottom;verticalAlign=top;align=center;outlineConnect=0;" vertex="1" parent="1">
          <mxGeometry x="500" y="269.75" width="78" height="53" as="geometry" />
        </mxCell>
        <mxCell id="Mr_6VUo17zFoHYfl5iYp-5" value="" style="shape=mxgraph.cisco.routers.router;html=1;pointerEvents=1;dashed=0;fillColor=#036897;strokeColor=#ffffff;strokeWidth=2;verticalLabelPosition=bottom;verticalAlign=top;align=center;outlineConnect=0;" vertex="1" parent="1">
          <mxGeometry x="500" y="460" width="78" height="53" as="geometry" />
        </mxCell>
        <mxCell id="Mr_6VUo17zFoHYfl5iYp-6" value="" style="shape=mxgraph.cisco.servers.file_server;html=1;pointerEvents=1;dashed=0;fillColor=#036897;strokeColor=#ffffff;strokeWidth=2;verticalLabelPosition=bottom;verticalAlign=top;align=center;outlineConnect=0;" vertex="1" parent="1">
          <mxGeometry x="60" y="240" width="90" height="112.5" as="geometry" />
        </mxCell>
        <mxCell id="Mr_6VUo17zFoHYfl5iYp-7" value="" style="shape=mxgraph.cisco.servers.file_server;html=1;pointerEvents=1;dashed=0;fillColor=#036897;strokeColor=#ffffff;strokeWidth=2;verticalLabelPosition=bottom;verticalAlign=top;align=center;outlineConnect=0;" vertex="1" parent="1">
          <mxGeometry x="60" y="400" width="90" height="110" as="geometry" />
        </mxCell>
        <mxCell id="Mr_6VUo17zFoHYfl5iYp-8" value="" style="endArrow=none;dashed=1;html=1;dashPattern=1 3;strokeWidth=2;rounded=0;entryX=0.5;entryY=1;entryDx=0;entryDy=0;entryPerimeter=0;exitX=0.5;exitY=0;exitDx=0;exitDy=0;exitPerimeter=0;" edge="1" parent="1" source="Mr_6VUo17zFoHYfl5iYp-7" target="Mr_6VUo17zFoHYfl5iYp-6">
          <mxGeometry width="50" height="50" relative="1" as="geometry">
            <mxPoint x="150" y="410" as="sourcePoint" />
            <mxPoint x="200" y="360" as="targetPoint" />
          </mxGeometry>
        </mxCell>
        <mxCell id="Mr_6VUo17zFoHYfl5iYp-9" value="" style="endArrow=none;dashed=1;html=1;dashPattern=1 3;strokeWidth=2;rounded=0;exitX=1;exitY=0.5;exitDx=0;exitDy=0;exitPerimeter=0;entryX=0;entryY=0.5;entryDx=0;entryDy=0;entryPerimeter=0;" edge="1" parent="1" source="Mr_6VUo17zFoHYfl5iYp-6" target="Mr_6VUo17zFoHYfl5iYp-4">
          <mxGeometry width="50" height="50" relative="1" as="geometry">
            <mxPoint x="400" y="410" as="sourcePoint" />
            <mxPoint x="450" y="360" as="targetPoint" />
          </mxGeometry>
        </mxCell>
        <mxCell id="Mr_6VUo17zFoHYfl5iYp-11" value="" style="endArrow=none;dashed=1;html=1;dashPattern=1 3;strokeWidth=2;rounded=0;entryX=0.89;entryY=0.9;entryDx=0;entryDy=0;entryPerimeter=0;exitX=0;exitY=0.5;exitDx=0;exitDy=0;exitPerimeter=0;" edge="1" parent="1" source="Mr_6VUo17zFoHYfl5iYp-5" target="Mr_6VUo17zFoHYfl5iYp-6">
          <mxGeometry width="50" height="50" relative="1" as="geometry">
            <mxPoint x="538.9156623892122" y="389.99634544251705" as="sourcePoint" />
            <mxPoint x="190" y="471.40999999999997" as="targetPoint" />
          </mxGeometry>
        </mxCell>
        <mxCell id="Mr_6VUo17zFoHYfl5iYp-12" value="&lt;font style=&quot;font-size: 18px;&quot;&gt;VPN-server + Ansible&lt;/font&gt;&lt;div&gt;&lt;font style=&quot;font-size: 18px;&quot;&gt;10.10.10.8&lt;/font&gt;&lt;/div&gt;" style="text;html=1;align=center;verticalAlign=middle;whiteSpace=wrap;rounded=0;" vertex="1" parent="1">
          <mxGeometry x="-80" y="269.75" width="140" height="73.75" as="geometry" />
        </mxCell>
        <mxCell id="Mr_6VUo17zFoHYfl5iYp-13" value="&lt;font style=&quot;font-size: 18px;&quot;&gt;Netbox server&lt;/font&gt;&lt;div&gt;&lt;font style=&quot;font-size: 18px;&quot;&gt;10.10.10.5&lt;/font&gt;&lt;/div&gt;" style="text;html=1;align=center;verticalAlign=middle;whiteSpace=wrap;rounded=0;" vertex="1" parent="1">
          <mxGeometry x="-60" y="430" width="110" height="70" as="geometry" />
        </mxCell>
        <mxCell id="Mr_6VUo17zFoHYfl5iYp-14" value="&lt;span style=&quot;font-size: 18px;&quot;&gt;router1&lt;/span&gt;&lt;br&gt;&lt;div&gt;&lt;font style=&quot;font-size: 18px;&quot;&gt;10.10.10.6&lt;/font&gt;&lt;/div&gt;" style="text;html=1;align=center;verticalAlign=middle;whiteSpace=wrap;rounded=0;" vertex="1" parent="1">
          <mxGeometry x="590" y="276.25" width="120" height="40" as="geometry" />
        </mxCell>
        <mxCell id="Mr_6VUo17zFoHYfl5iYp-15" value="&lt;span style=&quot;font-size: 18px;&quot;&gt;router2&lt;/span&gt;&lt;br&gt;&lt;div&gt;&lt;font style=&quot;font-size: 18px;&quot;&gt;10.10.10.7&lt;/font&gt;&lt;/div&gt;" style="text;html=1;align=center;verticalAlign=middle;whiteSpace=wrap;rounded=0;" vertex="1" parent="1">
          <mxGeometry x="590" y="466.5" width="120" height="40" as="geometry" />
        </mxCell>
      </root>
    </mxGraphModel>
  </diagram>
</mxfile>
